<?xml version="1.0"?>
<svg xmlns="http://www.w3.org/2000/svg" id="Filled" height="512px" viewBox="0 0 512 512" width="512px" class=""><g><path d="m168 376c64 0 96 64 96 64h-192s32-64 96-64z" fill="#d4a811" data-original="#D4A811" class="" style="fill:#FFCE00" data-old_color="#d4a811"/><path d="m304 136c-44.183 0-80 28.654-80 64l24 160c136 0 136-160 136-160 0-35.346-35.817-64-80-64zm-56 192 8-128c0-17.047 22.43-32 48-32s48 14.953 48 32c0 5.227-1.18 128-104 128z" fill="#e6be34" data-original="#E6BE34" class="active-path" style="fill:#FB5252" data-old_color="#e6be34"/><path d="m272 184c0-24 16-64 16-64h-240s16 40 16 64-16 128-16 128a96 96 0 0 0 96 96h48a96 96 0 0 0 96-96s-16-104-16-128z" fill="#f7cc38" data-original="#F7CC38" class="" style="fill:#E3E9ED" data-old_color="#f7cc38"/><path d="m160 208h64v64h-64z" fill="#8f9e46" data-original="#8F9E46" class="" style="fill:#FFCE00" data-old_color="#8f9e46"/><path d="m264 328a112 112 0 0 1 112 112 0 0 0 0 1 0 0 112 112 0 0 1 -112-112 0 0 0 0 1 0 0z" fill="#9cb352" transform="matrix(-1 0 0 -1 640 768)" data-original="#9CB352" class="" style="fill:#69E781" data-old_color="#9cb352"/><path d="m464 328a0 0 0 0 1 0 0 112 112 0 0 1 -112 112 0 0 0 0 1 0 0 112 112 0 0 1 112-112z" fill="#b1bd70" data-original="#B1BD70" class="" style="fill:#1FBD3D" data-old_color="#b1bd70"/><path d="m24 440h464a0 0 0 0 1 0 0v16a32 32 0 0 1 -32 32h-400a32 32 0 0 1 -32-32v-16a0 0 0 0 1 0 0z" fill="#596063" data-original="#596063" class="" style="fill:#E3E9ED" data-old_color="#596063"/><path d="m488 432h-76.184a120.075 120.075 0 0 0 60.184-104 8 8 0 0 0 -8-8 119.981 119.981 0 0 0 -99.963 53.69 119.792 119.792 0 0 0 -32.132-32.69c23.812-18.894 41.526-47.725 51.551-84.153a235.642 235.642 0 0 0 8.544-56.847c0-39.7-39.477-72-88-72q-5.367 0-10.674.531c1.244-3.4 2.068-5.473 2.1-5.561a8 8 0 0 0 -7.426-10.97h-240a8 8 0 0 0 -7.428 10.97c.154.386 15.428 38.864 15.428 61.03 0 23.118-15.748 125.75-15.907 126.784a7.982 7.982 0 0 0 -.093 1.216 104.055 104.055 0 0 0 51.788 89.913 40.139 40.139 0 0 0 -26.983 30.087h-40.805a8 8 0 0 0 -8 8v16a40.045 40.045 0 0 0 40 40h400a40.045 40.045 0 0 0 40-40v-16a8 8 0 0 0 -8-8zm-216.8 0a40.137 40.137 0 0 0 -26.988-30.088 104.212 104.212 0 0 0 24.664-19.877 119.178 119.178 0 0 0 13.488 21.015 120.716 120.716 0 0 0 33.8 28.95zm184.47-95.669a104.218 104.218 0 0 1 -82.09 93.4l48.077-48.077a8 8 0 0 0 -11.314-11.314l-48.078 48.078a104.219 104.219 0 0 1 93.405-82.087zm-100.614 53.391a119.244 119.244 0 0 0 -5.1 12.924l-32.3-32.3a8 8 0 0 0 -11.314 11.314l39.192 39.192q-.507 3.143-.85 6.336a104.63 104.63 0 0 1 -49.846-34.149 102.661 102.661 0 0 1 -22.517-56.708 103.648 103.648 0 0 1 82.735 53.391zm-74.979-208.422a55.411 55.411 0 0 1 23.923-5.3c22.527 0 40 12.9 40 24a185.207 185.207 0 0 1 -7.822 48.99c-8.367 27.322-22.057 46.97-40.76 58.583-2.673-17.628-15.418-102.773-15.418-123.573 0-.874.032-1.781.077-2.7zm23.923-37.3c39.7 0 72 25.122 72 55.994 0 .929-.832 91.662-59.1 132.238a119.408 119.408 0 0 0 -19.351-7.481c25.051-13.018 43.631-37.462 53.926-71.076a199.377 199.377 0 0 0 8.525-53.675c0-21.682-25.645-40-56-40a73.384 73.384 0 0 0 -21.156 3.109c1.359-6.014 3.058-12.092 4.766-17.638a91.68 91.68 0 0 1 16.39-1.471zm-248 168.6c1.453-9.482 16-104.979 16-128.6 0-17.452-7.594-41.966-12.507-56h124.507v72h-24a8 8 0 0 0 -8 8v64a8 8 0 0 0 8 8h64a8 8 0 0 0 8-8v-64a8 8 0 0 0 -8-8h-24v-72h76.508c-4.914 14.034-12.508 38.548-12.508 56 0 23.619 14.545 119.116 16 128.6-.019 2.812-.176 5.622-.46 8.412a121.354 121.354 0 0 0 -15.54-1.012 8 8 0 0 0 -8 8 120.048 120.048 0 0 0 6 37.325 88.163 88.163 0 0 1 -70 34.675h-48a88.1 88.1 0 0 1 -88-87.4zm160-96.6v48h-48v-48zm-112 200h128a24.039 24.039 0 0 1 22.624 16h-173.248a24.039 24.039 0 0 1 22.624-16zm376 40a24.028 24.028 0 0 1 -24 24h-400a24.028 24.028 0 0 1 -24-24v-8h448z" data-original="#000000" class="" style="fill:#000000" data-old_color="#000000"/></g> </svg>
