<?xml version="1.0" encoding="iso-8859-1"?>
<!-- Generator: Adobe Illustrator 19.0.0, SVG Export Plug-In . SVG Version: 6.00 Build 0)  -->
<svg version="1.1" id="Layer_1" xmlns="http://www.w3.org/2000/svg" xmlns:xlink="http://www.w3.org/1999/xlink" x="0px" y="0px"
	 viewBox="0 0 512 512" style="enable-background:new 0 0 512 512;" xml:space="preserve">
<path style="fill:#C7BCB5;" d="M342.848,259.474h74.737c35.676,0,64.596,28.984,64.596,64.74l0,0
	c0,35.754-28.921,64.74-64.596,64.74h-74.737v-30.904h68.567c18.461,0,33.427-15,33.427-33.502l0,0
	c0-18.502-14.966-33.502-33.427-33.502h-68.567V259.474z"/>
<path style="fill:#F7E9E1;" d="M401.278,259.471v77.147c0,68.407-54.272,123.866-121.22,123.866h-63.154
	c-66.948,0-121.22-55.459-121.22-123.866v-72.75c0-2.429,1.93-4.397,4.311-4.397H401.278L401.278,259.471z"/>
<path style="fill:#DED2CA;" d="M117.594,336.614v-77.141H99.996c-2.381,0-4.311,1.969-4.311,4.397v72.744
	c0,68.414,54.273,123.873,121.223,123.873h21.909C171.867,460.488,117.594,405.028,117.594,336.614z"/>
<g>
	<path style="fill:#F7E9E1;" d="M204.457,228.551c-8.93,0-16.169-7.248-16.169-16.191c0-16.521,10.443-25.113,16.683-30.247
		c4.874-4.011,4.874-4.418,4.874-5.229s0-1.217-4.875-5.228c-6.239-5.134-16.683-13.727-16.683-30.247s10.444-25.113,16.684-30.246
		c4.874-4.009,4.874-4.416,4.874-5.224s0-1.215-4.874-5.226c-6.24-5.134-16.684-13.726-16.684-30.246s10.444-25.112,16.684-30.246
		c4.874-4.009,4.874-4.416,4.874-5.224c0-8.942,7.239-16.191,16.169-16.191s16.169,7.248,16.169,16.191
		c0,16.52-10.444,25.112-16.684,30.246c-4.874,4.009-4.874,4.416-4.874,5.224c0,0.809,0,1.215,4.874,5.226
		c6.24,5.134,16.684,13.726,16.684,30.246s-10.444,25.112-16.684,30.246c-4.874,4.009-4.874,4.416-4.874,5.226
		c0,0.81,0,1.216,4.874,5.228c6.24,5.134,16.683,13.727,16.683,30.248S231.74,202,225.499,207.134
		c-4.874,4.011-4.874,4.418-4.874,5.229C220.625,221.302,213.386,228.551,204.457,228.551z"/>
	<path style="fill:#F7E9E1;" d="M282.163,228.551c-8.93,0-16.169-7.248-16.169-16.191c0-16.521,10.443-25.113,16.683-30.247
		c4.874-4.011,4.874-4.418,4.874-5.229s0-1.217-4.875-5.228c-6.239-5.134-16.683-13.727-16.683-30.247s10.444-25.113,16.684-30.246
		c4.874-4.009,4.874-4.416,4.874-5.224s0-1.215-4.874-5.226c-6.24-5.134-16.684-13.726-16.684-30.246s10.444-25.112,16.684-30.246
		c4.874-4.009,4.874-4.416,4.874-5.224c0-8.942,7.239-16.191,16.169-16.191s16.169,7.248,16.169,16.191
		c0,16.52-10.444,25.112-16.684,30.246c-4.874,4.009-4.874,4.416-4.874,5.224c0,0.809,0,1.215,4.874,5.226
		c6.24,5.134,16.684,13.726,16.684,30.246s-10.444,25.112-16.684,30.246c-4.874,4.009-4.874,4.416-4.874,5.226
		c0,0.81,0,1.216,4.874,5.228c6.24,5.134,16.683,13.727,16.683,30.248S309.446,202,303.205,207.134
		c-4.874,4.011-4.874,4.418-4.874,5.229C298.332,221.302,291.093,228.551,282.163,228.551z"/>
</g>
<path style="fill:#A9CF54;" d="M181.448,452.814c1.938-0.369,3.372-2.001,3.487-3.971c0.787-13.549,1.109-65.484-36.785-96.05
	c-37.71-30.418-97.669-25.838-113.724-23.958c-2.298,0.269-3.979,2.295-3.803,4.602c1.391,18.273,9.418,92.783,48.621,111.379
	C117.882,463.144,168.33,455.31,181.448,452.814z"/>
<path style="fill:#8AA848;" d="M99.794,450.914C61.146,430.463,52.799,349.41,51.237,327.584
	c-7.328,0.266-13.185,0.827-16.807,1.251c-2.299,0.269-3.982,2.296-3.807,4.604c1.392,18.276,9.419,92.782,48.621,111.377
	c7.944,3.768,16.388,6.426,24.904,8.257C102.682,452.391,101.23,451.673,99.794,450.914z"/>
<rect x="95.681" y="275.884" style="fill:#C7BCB5;" width="305.591" height="16.172"/>
<path style="fill:#C47037;" d="M252.906,259.471v76.038c0,4.111-2.952,7.775-7.03,8.292c-4.932,0.625-9.139-3.209-9.139-8.02
	v-76.311c0-4.466,3.62-8.086,8.084-8.086l0,0C249.287,251.385,252.906,255.005,252.906,259.471z"/>
<path style="fill:#6D8539;" d="M203.348,456.621l-50.248-39.616l-3.706-42.572c-0.387-4.448-4.297-7.746-8.755-7.354
	c-4.448,0.388-7.74,4.308-7.352,8.757l2.39,27.451l-18.623-14.662l-1.226-32.66c-0.168-4.462-3.917-7.968-8.381-7.777
	c-4.462,0.167-7.942,3.92-7.775,8.383l0.711,18.927l-14.368-11.312l-1.797-15.517c-0.514-4.437-4.519-7.61-8.961-7.102
	c-4.291,0.497-7.396,4.273-7.127,8.536l-6.596-5.193c-3.507-2.761-8.59-2.157-11.352,1.353c-2.762,3.509-2.157,8.593,1.352,11.355
	l5.43,4.276l-1.011,0.073c-4.453,0.321-7.803,4.191-7.483,8.645c0.306,4.257,3.854,7.506,8.055,7.506
	c0.194,0,0.392-0.007,0.589-0.022l18.717-1.348l14.131,11.126l-22.473,4.017c-4.395,0.786-7.322,4.986-6.536,9.383
	c0.699,3.915,4.106,6.665,7.949,6.665c0.472,0,0.951-0.042,1.432-0.127l36.634-6.547l18.68,14.707l-31.158,4.671
	c-4.416,0.661-7.458,4.778-6.797,9.195c0.601,4.011,4.049,6.889,7.985,6.889c0.398,0,0.802-0.029,1.208-0.091l46.211-6.927
	l50.255,39.621c1.482,1.166,3.244,1.732,4.995,1.732c2.393,0,4.763-1.059,6.358-3.086
	C207.461,464.467,206.855,459.383,203.348,456.621z"/>
<path style="fill:#FFDC7B;" d="M279.455,323.372v81.314c0,3.148-2.555,5.693-5.702,5.693h-57.861c-3.147,0-5.702-2.544-5.702-5.693
	v-81.314c0-3.148,2.555-5.703,5.702-5.703h57.861C276.9,317.669,279.455,320.224,279.455,323.372z"/>
<path style="fill:#F0AE59;" d="M231.747,404.682V323.37c0-3.148,2.552-5.7,5.699-5.7h-21.558c-3.147,0-5.699,2.552-5.699,5.7v81.312
	c0,3.148,2.552,5.7,5.699,5.7h21.558C234.299,410.382,231.747,407.83,231.747,404.682z"/>
<rect x="210.192" y="343.342" style="fill:#C47037;" width="69.266" height="16.172"/>
<path style="fill:#826B6B;" d="M6.865,456.894h498.27c3.791,0,6.865,3.08,6.865,6.88l0,0c0,16.247-13.142,29.418-29.352,29.418
	H29.352C13.142,493.191,0,480.02,0,463.773l0,0C0,459.974,3.073,456.894,6.865,456.894z"/>
<path style="fill:#705B5B;" d="M21.558,463.773L21.558,463.773c0-3.799,3.073-6.88,6.865-6.88H6.865c-3.791,0-6.865,3.08-6.865,6.88
	l0,0c0,16.247,13.142,29.418,29.352,29.418h21.558C34.7,493.191,21.558,480.02,21.558,463.773z"/>
<g>
</g>
<g>
</g>
<g>
</g>
<g>
</g>
<g>
</g>
<g>
</g>
<g>
</g>
<g>
</g>
<g>
</g>
<g>
</g>
<g>
</g>
<g>
</g>
<g>
</g>
<g>
</g>
<g>
</g>
</svg>
